<?xml version="1.0" encoding="UTF-8"?> <svg xmlns="http://www.w3.org/2000/svg" width="65" height="65" viewBox="0 0 65 65" fill="none"><path d="M31.9583 56.3324C44.2237 56.3324 54.1667 46.6319 54.1667 34.6657C54.1667 22.6995 44.2237 12.999 31.9583 12.999C19.693 12.999 9.75 22.6995 9.75 34.6657C9.75 46.6319 19.693 56.3324 31.9583 56.3324Z" fill="#FFDCB4"></path><path d="M19.5 25.999V21.9138C19.5 18.6875 20.8126 15.5934 23.149 13.312C25.4854 11.0307 28.6542 9.74902 31.9583 9.74902C35.2625 9.74902 38.4313 11.0307 40.7677 13.312C43.1041 15.5934 44.4167 18.6875 44.4167 21.9138V25.999H19.5Z" fill="#FF8C00"></path><path d="M21.1251 28.1663C22.6209 28.1663 23.8334 27.1963 23.8334 25.9997C23.8334 24.8031 22.6209 23.833 21.1251 23.833C19.6293 23.833 18.4167 24.8031 18.4167 25.9997C18.4167 27.1963 19.6293 28.1663 21.1251 28.1663Z" fill="white"></path><path d="M42.7916 28.1663C44.2874 28.1663 45.4999 27.1963 45.4999 25.9997C45.4999 24.8031 44.2874 23.833 42.7916 23.833C41.2958 23.833 40.0833 24.8031 40.0833 25.9997C40.0833 27.1963 41.2958 28.1663 42.7916 28.1663Z" fill="white"></path><path d="M20.5833 22.3341C20.5833 19.5711 21.7246 16.9212 23.7563 14.9674C25.7879 13.0136 28.5434 11.916 31.4166 11.916C34.2898 11.916 37.0453 13.0136 39.0769 14.9674C41.1086 16.9212 42.2499 19.5711 42.2499 22.3341V27.4979C42.2499 30.261 41.1086 32.9108 39.0769 34.8646C37.0453 36.8184 34.2898 37.916 31.4166 37.916C28.5434 37.916 25.7879 36.8184 23.7563 34.8646C21.7246 32.9108 20.5833 30.261 20.5833 27.4979V22.3341Z" fill="white"></path><path d="M40.9958 16.6081C41.057 16.2078 41.0755 15.8017 41.0508 15.3973C41.0011 15.3461 40.9689 15.2796 40.9592 15.2077C40.951 14.8524 40.8892 14.5006 40.7758 14.1651C40.2258 12.08 38.0258 8.57312 32.2508 8.6679C24.0833 8.85746 19.5 12.7434 19.5 12.7434L21.6702 16.1531L20.1417 20.7049L20.5083 23.8327H22.25C22.25 23.8327 21.9062 19.6647 26.6935 17.935C26.9931 18.4401 27.421 18.8505 27.9305 19.1217C28.44 19.3928 29.0117 19.5143 29.5833 19.4728C30.3167 19.4728 30.9583 19.0937 31.5083 18.6198C32.0223 19.4059 32.7208 20.0443 33.5385 20.4753C34.3561 20.9063 35.2661 21.1158 36.1833 21.0841C37.3577 21.0097 38.4735 20.528 39.3504 19.7169C39.8728 20.2553 40.2842 20.8976 40.5599 21.605C40.8356 22.3124 40.9699 23.0702 40.9546 23.8327H42.1417L43.3333 21.4632L40.9958 16.6081Z" fill="#FF8C00"></path><path d="M35.144 30.335C35.2323 30.3285 35.3214 30.338 35.4038 30.3629C35.4862 30.3878 35.5593 30.4273 35.6171 30.478C35.6749 30.5287 35.7155 30.5892 35.7356 30.6542C35.7557 30.7193 35.7546 30.7871 35.7325 30.8517C35.4382 32.4019 33.5745 33.583 31.4166 33.583C29.2586 33.583 27.3949 32.4019 27.1007 30.8517C27.0785 30.7871 27.0775 30.7193 27.0976 30.6542C27.1177 30.5892 27.1583 30.5287 27.2161 30.478C27.2738 30.4273 27.347 30.3878 27.4294 30.3629C27.5117 30.338 27.6009 30.3285 27.6892 30.335H35.144Z" fill="#FFDCB4"></path><path d="M48.7501 48.6858L47.9058 44.5756C47.6244 43.2959 46.9222 42.1526 45.9155 41.3355C44.9088 40.5183 43.6582 40.0764 42.3711 40.0831H21.5457C20.2624 40.0911 19.0189 40.5384 18.0152 41.3531C17.0114 42.1679 16.3055 43.3029 16.011 44.5756L15.1667 48.6858C17.2806 51.0918 19.8688 53.0165 22.7622 54.3342C25.6556 55.6519 28.7892 56.333 31.9584 56.333C35.1277 56.333 38.2613 55.6519 41.1547 54.3342C44.0481 53.0165 46.6362 51.0918 48.7501 48.6858Z" fill="#FFAA00"></path><path d="M31.9586 49.833C30.7461 48.7082 29.7862 47.3683 29.1351 45.8919C28.484 44.4155 28.1549 42.8323 28.1671 41.2353V40.083H35.7501V41.3239C35.7527 42.9064 35.4188 44.4736 34.7679 45.9344C34.117 47.3952 33.1621 48.7204 31.9586 49.833Z" fill="white"></path><path d="M30.3333 48.0027C30.8082 48.6601 31.3504 49.2731 31.9523 49.833C32.5589 49.2685 33.1051 48.6503 33.5833 47.9872L32.9033 40.9694L31.9523 40.083L31.0013 40.9694L30.3333 48.0027Z" fill="#FF8C00"></path></svg> 